<svg width="28" height="22" viewBox="0 0 28 22" fill="none" xmlns="http://www.w3.org/2000/svg">
<path fill-rule="evenodd" clip-rule="evenodd" d="M17.8998 0.638985C17.562 0.647548 17.2619 0.857759 17.139 1.17243L9.30379 20.2009C9.12749 20.6307 9.33303 21.1218 9.76287 21.2982C10.1927 21.4745 10.684 21.269 10.8603 20.8392L18.6957 1.81076C18.8091 1.54747 18.7804 1.24393 18.619 1.00675C18.458 0.769138 18.1866 0.630423 17.8998 0.638985Z" fill="#63ADF2"/>
<path fill-rule="evenodd" clip-rule="evenodd" d="M7.50281 4.56559C7.31285 4.58186 7.13398 4.66192 6.99565 4.79292L0.839428 10.3894C0.664626 10.5486 0.565002 10.7743 0.565002 11.0106C0.565002 11.2469 0.664626 11.4721 0.839428 11.6314L6.99565 17.2278C7.33888 17.5391 7.86903 17.5142 8.18186 17.1726C8.49465 16.8309 8.4726 16.3005 8.13241 15.9863L2.65832 11.0106L8.13241 6.03491C8.4074 5.79559 8.49641 5.406 8.35281 5.07078C8.20922 4.73599 7.86577 4.53177 7.50281 4.56559Z" fill="#63ADF2"/>
<path fill-rule="evenodd" clip-rule="evenodd" d="M20.3836 4.56525C20.0415 4.58109 19.7431 4.80286 19.6301 5.12567C19.5167 5.4489 19.6104 5.80852 19.8677 6.03457L25.3417 11.0102L24.9046 11.4037C24.6674 11.6011 24.5582 11.9127 24.619 12.215C24.6803 12.5172 24.9025 12.7617 25.1974 12.8516C25.4924 12.9415 25.8131 12.8623 26.0327 12.6453L27.1604 11.631C27.3355 11.4718 27.4348 11.2466 27.4348 11.0102C27.4348 10.7739 27.3355 10.5483 27.1604 10.3895L21.0044 4.79258C20.8374 4.63503 20.6127 4.55284 20.3836 4.56525Z" fill="#63ADF2"/>
<path fill-rule="evenodd" clip-rule="evenodd" d="M22.6137 13.4846C22.7747 13.3339 22.9879 13.2521 23.2084 13.2572C23.5535 13.2662 23.8578 13.4854 23.976 13.81C24.0937 14.1345 24.0008 14.498 23.7418 14.7261L21.0048 17.2272C20.6615 17.5385 20.1314 17.5137 19.8185 17.172C19.506 16.8304 19.5278 16.2999 19.8681 15.9857L22.6137 13.4846Z" fill="#63ADF2"/>
</svg>
